<?xml version="1.0" encoding="utf-8"?>
<!-- Generator: Adobe Illustrator 16.0.0, SVG Export Plug-In . SVG Version: 6.00 Build 0)  -->
<!DOCTYPE svg PUBLIC "-//W3C//DTD SVG 1.1//EN" "http://www.w3.org/Graphics/SVG/1.1/DTD/svg11.dtd">
<svg version="1.1" xmlns="http://www.w3.org/2000/svg" xmlns:xlink="http://www.w3.org/1999/xlink" x="0px" y="0px" width="165px"
	 height="110.348px" viewBox="0 0 165 110.348" enable-background="new 0 0 165 110.348" xml:space="preserve">
<g id="Layer_1">
	<path fill="#EA5744" stroke="#231F20" stroke-width="4" stroke-miterlimit="10" d="M20.541,68.391c0,0-6.731,4.367-11.397,10.234
		c-3.225,4.057-6.534,13.713-6.774,14.859c-0.541,2.588-0.328,10.6-0.328,10.6s6.97-10.27,8.551-12.383
		c1.147-1.533,10.955-8.949,10.955-8.949"/>
	<path fill="#EA5744" stroke="#231F20" stroke-width="4" stroke-miterlimit="10" d="M5.137,90.026"/>
	<path fill="#EA5744" stroke="#231F20" stroke-width="4" stroke-miterlimit="10" d="M68.562,68.391c0,0,6.731,4.367,11.397,10.234
		c3.226,4.057,6.534,13.713,6.774,14.859c0.541,2.588,0.328,10.6,0.328,10.6s-6.971-10.27-8.551-12.383
		c-1.148-1.533-10.955-8.949-10.955-8.949"/>
	<path fill="#C4C8CC" stroke="#231F20" stroke-width="4" stroke-miterlimit="10" d="M65.527,96.073
		c2.145-8.875,3.379-19.232,3.379-30.301c0-32.828-24.182-59.438-24.182-59.438s-24.184,26.61-24.184,59.438
		c0,11.068,1.234,21.426,3.378,30.301H65.527z"/>
	
		<ellipse fill="#FFFFFF" stroke="#231F20" stroke-width="4" stroke-miterlimit="10" cx="44.723" cy="55.572" rx="10.781" ry="11.073"/>
	<line fill="none" stroke="#231F20" stroke-width="4" stroke-miterlimit="10" x1="29.285" y1="30.181" x2="60.162" y2="30.181"/>
	<line fill="none" stroke="#231F20" stroke-width="4" stroke-miterlimit="10" x1="21.83" y1="84.928" x2="67.617" y2="84.928"/>
</g>
<g id="person">
	
		<line fill="none" stroke="#231F20" stroke-width="4" stroke-linecap="round" stroke-linejoin="round" stroke-miterlimit="10" x1="110" y1="108.084" x2="126" y2="72.391"/>
	
		<line fill="none" stroke="#231F20" stroke-width="4" stroke-linecap="round" stroke-linejoin="round" stroke-miterlimit="10" x1="126" y1="72.391" x2="127.334" y2="27.026"/>
	
		<line fill="none" stroke="#231F20" stroke-width="4" stroke-linecap="round" stroke-linejoin="round" stroke-miterlimit="10" x1="126" y1="42.36" x2="110" y2="49.708"/>
	
		<line fill="none" stroke="#231F20" stroke-width="4" stroke-linecap="round" stroke-linejoin="round" stroke-miterlimit="10" x1="110" y1="49.708" x2="124.334" y2="63.027"/>
	
		<line fill="none" stroke="#231F20" stroke-width="4" stroke-linecap="round" stroke-linejoin="round" stroke-miterlimit="10" x1="129.334" y1="42.36" x2="148.334" y2="38.693"/>
	
		<line fill="none" stroke="#231F20" stroke-width="4" stroke-linecap="round" stroke-linejoin="round" stroke-miterlimit="10" x1="148.334" y1="38.693" x2="155.334" y2="29.36"/>
	
		<circle fill="none" stroke="#231F20" stroke-width="4" stroke-linecap="round" stroke-linejoin="round" stroke-miterlimit="10" cx="126.501" cy="14.167" r="12.167"/>
	
		<line fill="none" stroke="#231F20" stroke-width="4" stroke-linecap="round" stroke-linejoin="round" stroke-miterlimit="10" x1="126" y1="72.391" x2="141.334" y2="108.084"/>
</g>
<g id="duct_tape">
	
		<circle fill="none" stroke="#A67C52" stroke-linecap="round" stroke-linejoin="round" stroke-miterlimit="10" cx="159.333" cy="27.027" r="3.333"/>
	<circle fill="none" stroke="#999999" stroke-width="2" stroke-miterlimit="10" cx="159.415" cy="26.945" r="4.417"/>
	<line fill="none" stroke="#999999" stroke-linecap="round" stroke-miterlimit="10" x1="164.5" y1="27.36" x2="164.5" y2="36.36"/>
</g>
<g id="taped">
	
		<rect x="61.5" y="64.86" transform="matrix(-0.8521 -0.5234 0.5234 -0.8521 79.8941 177.2984)" fill="#B3B3B3" stroke="#808080" stroke-linecap="round" stroke-miterlimit="10" width="7" height="24.999"/>
	
		<rect x="38.5" y="14.861" transform="matrix(0.4062 -0.9138 0.9138 0.4062 -0.0603 54.6279)" fill="#B3B3B3" stroke="#808080" stroke-linecap="round" stroke-miterlimit="10" width="7" height="25"/>
</g>
</svg>
